<svg  viewBox="0 0 175 138" fill="none" xmlns="http://www.w3.org/2000/svg">
<g clip-path="url(#clip0_26_265)">
<path d="M42.014 74.8216C40.6173 67.3382 42.8162 58.8246 48.9279 54.295C48.5815 62.5664 51.1688 70.694 56.2319 77.2396C58.1937 79.7569 60.6375 82.3522 60.5616 85.5441C60.5144 87.5302 59.4415 89.3804 58.0276 90.7743C56.6136 92.1683 54.8719 93.1732 53.151 94.1626L52.8831 94.5797C47.8385 88.8832 43.4106 82.305 42.014 74.8216Z" fill="#F0F0F0"/>
<path d="M49.0397 54.4094C46.4719 60.1625 45.7802 66.5793 47.0627 72.7484C47.3153 74.0813 47.7761 75.3661 48.4283 76.5554C49.101 77.6934 50.0658 78.6303 51.2225 79.2687C52.2891 79.8857 53.4514 80.3932 54.3496 81.2589C54.8028 81.7089 55.1558 82.2498 55.3856 82.846C55.6153 83.4422 55.7166 84.0802 55.6828 84.7183C55.6398 86.3105 55.0279 87.7923 54.3792 89.2205C53.6589 90.8063 52.8857 92.442 52.9324 94.2249C52.9381 94.4409 52.6029 94.4371 52.5973 94.2214C52.516 91.1195 54.7561 88.6284 55.2552 85.652C55.4881 84.2632 55.3043 82.7957 54.329 81.7191C53.4761 80.7778 52.278 80.2535 51.1927 79.6381C50.0551 79.0318 49.0832 78.156 48.3618 77.087C47.6512 75.9348 47.1417 74.6699 46.855 73.3465C46.1622 70.3775 45.94 67.3179 46.1965 64.2798C46.4701 60.8108 47.3344 57.4142 48.7521 54.237C48.8399 54.0404 49.1269 54.214 49.0397 54.4093L49.0397 54.4094Z" fill="white"/>
<path d="M46.5327 70.7863C45.4697 70.8612 44.4146 70.5553 43.5559 69.9234C42.6973 69.2914 42.091 68.3744 41.8454 67.3362C41.7964 67.126 42.1204 67.0399 42.1694 67.2504C42.3964 68.2176 42.9613 69.0717 43.762 69.6586C44.5628 70.2454 45.5467 70.5264 46.5362 70.4508C46.7513 70.4346 46.7466 70.7702 46.5327 70.7863Z" fill="white"/>
<path d="M50.6403 79.0272C52.0834 77.3934 52.8585 75.2751 52.8109 73.0946C52.806 72.8786 53.1411 72.8824 53.146 73.0981C53.1913 75.3673 52.3803 77.5701 50.8748 79.2669C50.7312 79.4286 50.4974 79.188 50.6403 79.0272V79.0272Z" fill="white"/>
<path d="M46.8622 61.0191C47.2796 61.076 47.7045 61.0281 48.0988 60.8799C48.4932 60.7317 48.8445 60.4877 49.1214 60.17C49.2629 60.0066 49.4965 60.2474 49.3559 60.4097C49.0484 60.7593 48.66 61.0283 48.2247 61.193C47.7893 61.3577 47.3204 61.4132 46.8587 61.3546C46.8147 61.3528 46.7731 61.3342 46.7423 61.3027C46.7115 61.2712 46.6938 61.2292 46.6929 61.1851C46.6936 61.1407 46.7117 61.0984 46.7434 61.0673C46.7751 61.0362 46.8178 61.0189 46.8622 61.0191H46.8622Z" fill="white"/>
<path d="M73.9217 60.4848C73.8362 60.5894 73.7508 60.6939 73.666 60.8012C72.5244 62.2125 71.4993 63.7143 70.6007 65.2918C70.5292 65.4127 70.4587 65.5363 70.3909 65.6589C68.2664 69.4827 66.8694 73.668 66.271 78.0023C66.0345 79.7272 65.9294 81.4676 65.9567 83.2085C65.9944 85.6128 66.2264 88.2165 65.4903 90.4278C65.4161 90.6593 65.3276 90.886 65.2254 91.1067L53.4126 94.8745C53.3815 94.8696 53.3511 94.8674 53.3198 94.8625L52.855 95.0346C52.8473 94.9449 52.8413 94.8517 52.8336 94.762C52.829 94.71 52.8269 94.6571 52.8223 94.6051C52.82 94.5702 52.8178 94.5352 52.8138 94.5038C52.813 94.4922 52.8123 94.4805 52.8124 94.4716C52.8083 94.4402 52.8079 94.4106 52.8047 94.3819C52.7696 93.8611 52.7371 93.3395 52.7101 92.8161C52.7092 92.8134 52.7092 92.8134 52.711 92.8099C52.5082 88.8236 52.6361 84.7854 53.3722 80.8951C53.3943 80.778 53.4155 80.6583 53.4431 80.5396C53.7846 78.7878 54.2686 77.0669 54.8901 75.3941C55.2334 74.4792 55.6227 73.5823 56.0566 72.7068C57.182 70.4468 58.6555 68.3782 60.423 66.5766C63.9471 62.9858 68.5791 60.5632 73.5424 60.4869C73.6694 60.4851 73.7938 60.484 73.9217 60.4848Z" fill="#F0F0F0"/>
<path d="M73.9426 60.6434C68.4325 63.6892 64.0212 68.3958 61.3351 74.0945C60.7351 75.311 60.3304 76.6146 60.1359 77.9573C59.9886 79.2714 60.1955 80.601 60.7351 81.8079C61.2157 82.9434 61.8386 84.0492 62.0351 85.2818C62.1263 85.9143 62.0829 86.5589 61.9078 87.1734C61.7327 87.7879 61.4298 88.3584 61.019 88.8475C60.0272 90.0929 58.6475 90.9072 57.2706 91.6565C55.7418 92.4886 54.1408 93.3285 53.1058 94.7802C52.9804 94.9561 52.7152 94.751 52.8404 94.5754C54.6409 92.0498 57.9276 91.4109 60.1162 89.3353C61.1373 88.3668 61.8732 87.0843 61.7419 85.6369C61.627 84.3712 60.9857 83.2303 60.4892 82.0848C59.9456 80.9152 59.6963 79.63 59.7631 78.3416C59.8887 76.9934 60.2426 75.6763 60.8096 74.4469C62.042 71.6587 63.7045 69.0818 65.7365 66.8107C68.0412 64.2058 70.774 62.0148 73.8167 60.3324C74.005 60.2284 74.1298 60.54 73.9426 60.6434Z" fill="white"/>
<path d="M62.0923 72.2086C61.1985 71.6276 60.54 70.7475 60.2345 69.7253C59.929 68.7032 59.9963 67.6056 60.4245 66.6286C60.5119 66.4312 60.8224 66.5578 60.7349 66.7554C60.3345 67.6645 60.2718 68.6869 60.5583 69.6381C60.8447 70.5894 61.4613 71.4068 62.2969 71.9428C62.4783 72.0595 62.2727 72.3246 62.0923 72.2086H62.0923Z" fill="white"/>
<path d="M60.4159 81.2643C62.5507 80.8297 64.4435 79.6054 65.7168 77.8357C65.8428 77.6603 66.1081 77.8653 65.9823 78.0406C64.6538 79.8797 62.6815 81.1497 60.4589 81.5971C60.2471 81.6396 60.2052 81.3066 60.4159 81.2643V81.2643Z" fill="white"/>
<path d="M68.2292 64.6088C68.5282 64.9057 68.8963 65.1237 69.3003 65.243C69.7043 65.3623 70.1315 65.3794 70.5437 65.2925C70.7549 65.2474 70.7966 65.5804 70.5868 65.6253C70.1309 65.7191 69.6591 65.6997 69.2124 65.5688C68.7658 65.438 68.358 65.1996 68.0246 64.8746C67.9906 64.8466 67.9685 64.8067 67.9629 64.763C67.9572 64.7192 67.9684 64.675 67.9941 64.6393C68.0214 64.6042 68.0614 64.5814 68.1054 64.5756C68.1494 64.5699 68.1939 64.5818 68.2292 64.6088V64.6088Z" fill="white"/>
<path d="M92.4768 19.563C92.5164 19.7372 92.5422 19.9142 92.554 20.0924L106.404 28.0914L109.771 26.1513L113.359 30.8548L107.733 34.8694C107.279 35.1937 106.731 35.3617 106.173 35.348C105.615 35.3344 105.077 35.14 104.639 34.7939L90.3567 23.5142C89.7121 23.7531 89.0102 23.7898 88.3443 23.6196C87.6784 23.4493 87.0801 23.0801 86.6289 22.5611C86.1777 22.0421 85.895 21.3979 85.8184 20.7141C85.7419 20.0304 85.8751 19.3395 86.2003 18.7334C86.5255 18.1272 87.0274 17.6346 87.6391 17.321C88.2509 17.0073 88.9435 16.8876 89.6248 16.9777C90.3062 17.0677 90.944 17.3634 91.4535 17.8252C91.9629 18.287 92.3199 18.8932 92.4768 19.563V19.563Z" fill="#FFB6B6"/>
<path d="M106.596 27.2083C106.64 27.0042 106.728 26.8121 106.853 26.6449C106.977 26.4778 107.137 26.3396 107.32 26.2397L113.714 22.7518C114.566 22.1084 115.637 21.8294 116.694 21.9758C117.751 22.1223 118.707 22.6823 119.351 23.5331C119.996 24.3839 120.278 25.4561 120.134 26.5144C119.991 27.5727 119.434 28.5308 118.586 29.1786L113.461 34.3908C113.315 34.5395 113.138 34.6549 112.943 34.7292C112.748 34.8035 112.54 34.8348 112.332 34.8211C112.124 34.8074 111.921 34.749 111.738 34.6498C111.554 34.5506 111.394 34.4131 111.269 34.2464L106.856 28.3896C106.73 28.223 106.642 28.0312 106.597 27.8273C106.553 27.6235 106.552 27.4123 106.596 27.2083Z" fill="#3F3D56"/>
<path d="M118.02 6.93098C118.94 3.99564 121.032 1.30345 123.926 0.311144C126.819 -0.681159 131.056 0.830443 133.232 3.00082C137.211 6.97088 138.182 20.6095 135.448 24.9194C134.904 24.8906 133.028 24.8693 132.477 24.8486L131.699 22.2509V24.823C127.403 24.6901 122.931 24.7734 118.457 24.8594C118.056 21.8079 117.1 9.86633 118.02 6.93098Z" fill="#2F2E41"/>
<path d="M116.789 130.141H112.871L111.007 115.012L116.79 115.012L116.789 130.141Z" fill="#FFB6B6"/>
<path d="M151.088 127.702L147.296 128.691L141.681 114.522L147.276 113.062L151.088 127.702Z" fill="#FFB6B6"/>
<path d="M129.496 37.219L130.384 39.5298L130.206 41.8405L112.832 47.8651L113.694 37.7522L115.647 35.4412L129.496 37.219Z" fill="#FFB6B6"/>
<path d="M124.002 16.4242C127.43 16.4242 130.208 13.6428 130.208 10.2118C130.208 6.78072 127.43 3.9993 124.002 3.9993C120.575 3.9993 117.797 6.78072 117.797 10.2118C117.797 13.6428 120.575 16.4242 124.002 16.4242Z" fill="#FFB7B7"/>
<path d="M119.738 2.12201C120.931 1.3943 122.296 1.00064 123.693 0.982215C125.089 0.963786 126.465 1.32125 127.676 2.01725C128.887 2.71324 129.889 3.7222 130.577 4.93862C131.266 6.15503 131.615 7.53424 131.589 8.93201C128.206 9.79754 124.601 10.1596 120.781 9.14047L119.908 7.00097L119.393 9.14205C118.224 9.96505 117.097 9.96356 116.009 9.1376C115.963 7.74377 116.283 6.36224 116.938 5.13111C117.592 3.89997 118.558 2.86237 119.738 2.12201Z" fill="#2F2E41"/>
<path d="M118.542 137.589H115.762L115.266 134.961L113.995 137.589H106.621C106.268 137.589 105.923 137.476 105.639 137.266C105.354 137.057 105.144 136.761 105.038 136.424C104.933 136.086 104.939 135.723 105.054 135.389C105.169 135.054 105.388 134.765 105.679 134.564L111.568 130.493V127.836L117.761 128.206L118.542 137.589Z" fill="#2F2E41"/>
<path d="M155.003 134.377L152.313 135.079L151.171 132.661L150.603 135.525L143.468 137.387C143.126 137.476 142.764 137.454 142.436 137.323C142.108 137.192 141.83 136.959 141.643 136.659C141.456 136.359 141.37 136.006 141.397 135.654C141.424 135.301 141.563 134.966 141.794 134.698L146.467 129.271L145.797 126.701L151.884 125.495L155.003 134.377Z" fill="#2F2E41"/>
<path d="M150.606 118.188L139.122 94.5572L135.516 65.7958C138.002 61.1743 133.386 51.7703 133.386 51.7703V47.822L115.503 51.1994V51.1994C111.846 61.1866 110.072 71.7668 110.272 82.4022L110.993 120.634H110.767C110.392 120.634 110.032 120.783 109.767 121.049C109.502 121.314 109.353 121.674 109.353 122.05C109.353 122.426 109.502 122.786 109.767 123.051C110.032 123.317 110.392 123.466 110.767 123.466H117.838C118.214 123.466 118.573 123.317 118.838 123.051C119.104 122.786 119.253 122.426 119.253 122.05C119.253 121.674 119.104 121.314 118.838 121.049C118.573 120.783 118.214 120.634 117.838 120.634H117.656L122.733 71.9963L128.635 95.9978L142.9 118.097C142.536 118.125 142.197 118.294 141.955 118.567C141.713 118.84 141.585 119.197 141.6 119.562C141.615 119.927 141.77 120.272 142.034 120.525C142.297 120.777 142.648 120.918 143.013 120.917H150.085C150.414 120.918 150.732 120.803 150.986 120.593C151.239 120.384 151.412 120.092 151.474 119.769C151.536 119.445 151.483 119.11 151.324 118.822C151.166 118.533 150.912 118.309 150.606 118.188H150.606Z" fill="#2F2E41"/>
<path d="M135.003 54.191H135.003C134.944 53.9599 134.814 53.7535 134.631 53.6011C134.447 53.4488 134.221 53.3584 133.983 53.3429C133.747 50.645 132.19 33.3424 132.131 32.8348L132.128 32.8133L131.677 23.1689C131.661 22.8186 131.516 22.4867 131.271 22.2364C131.026 21.9862 130.697 21.8352 130.347 21.8124L127.965 21.6565C127.933 21.6554 127.902 21.6416 127.879 21.6181C127.856 21.5946 127.844 21.5631 127.844 21.5304C127.844 21.2671 127.792 21.0063 127.691 20.763C127.59 20.5197 127.443 20.2986 127.257 20.1124C127.071 19.9262 126.85 19.7785 126.607 19.6777C126.364 19.577 126.104 19.5251 125.84 19.5251H118.788C118.332 19.5253 117.891 19.6924 117.548 19.995C117.206 20.2976 116.985 20.7149 116.928 21.1686C116.925 21.1998 116.91 21.2288 116.887 21.2495C116.864 21.2703 116.833 21.2815 116.802 21.2808L116.801 21.2808C116 21.2642 115.219 21.5358 114.6 22.0463C113.982 22.5567 113.567 23.2722 113.43 24.0628C112.466 29.6785 110.534 42.4241 111.489 49.5099C111.822 51.9765 111.671 55.6864 111.545 57.7503C111.533 57.9497 111.56 58.1497 111.624 58.3387C111.689 58.5277 111.791 58.702 111.923 58.8517C111.642 58.9329 111.403 59.1202 111.257 59.3742C111.111 59.6282 111.069 59.929 111.14 60.2132H111.14C111.214 60.5045 111.4 60.7547 111.657 60.9087C111.915 61.0628 112.223 61.1081 112.514 61.0346L134.182 55.5662C134.473 55.4928 134.723 55.3067 134.877 55.0487C135.031 54.7908 135.076 54.4823 135.003 54.191Z" fill="#3F3D56"/>
<path d="M99.1909 94.7374C99.1869 94.1041 98.9589 93.4926 98.5475 93.0115C98.1361 92.5304 97.5678 92.2107 96.9434 92.109L58.5266 85.7935C58.1582 85.7324 57.7812 85.7492 57.4196 85.8427L48.4164 88.1733L43.2506 89.5121L33.7174 91.9792C33.1419 92.1288 32.6323 92.4655 32.2685 92.9362C31.9047 93.407 31.7072 93.9854 31.707 94.5807V134.881C31.7099 135.495 31.922 136.09 32.3082 136.568C32.6944 137.045 33.2318 137.377 33.8315 137.507L72.9617 137.063C73.1454 137.103 73.3329 137.123 73.5208 137.122C73.7946 137.122 74.0668 137.081 74.3281 136.999L97.5763 137.578C98.1249 137.406 98.6038 137.062 98.9418 136.597C99.2797 136.132 99.4589 135.57 99.4525 134.994L99.1909 94.7374Z" fill="white"/>
<path d="M99.1909 94.7374C99.1869 94.104 98.9589 93.4926 98.5475 93.0115C98.1361 92.5304 97.5678 92.2107 96.9434 92.109L58.5266 85.7935C58.1582 85.7324 57.7812 85.7492 57.4196 85.8427L48.4164 88.1733L43.2506 89.5121L33.7174 91.9792C33.1419 92.1288 32.6323 92.4655 32.2685 92.9362C31.9047 93.407 31.7072 93.9854 31.707 94.5806V134.881C31.7099 135.495 31.922 136.09 32.3082 136.568C32.6944 137.045 33.2318 137.377 33.8315 137.507L72.9617 137.063C73.1454 137.103 73.3329 137.122 73.5208 137.122C73.7946 137.122 74.0668 137.081 74.3281 136.999L97.5763 137.578C98.1249 137.406 98.6038 137.062 98.9418 136.597C99.2797 136.132 99.4589 135.57 99.4525 134.994L99.1909 94.7374ZM97.375 136.937L74.1268 137.491C73.7951 137.594 73.4426 137.611 73.1026 137.54L33.9701 136.851C33.5205 136.753 33.1177 136.504 32.8283 136.146C32.5388 135.788 32.3799 135.342 32.3779 134.881V94.5806C32.3782 94.1681 32.5049 93.7655 32.7408 93.4273C32.9767 93.089 33.3105 92.8313 33.6973 92.6889C33.7587 92.6658 33.8215 92.6464 33.8852 92.6307L43.9707 90.0203L49.9349 88.4755L57.5873 86.4942C57.7515 86.4504 57.9207 86.4285 58.0905 86.4293C58.1999 86.4292 58.3091 86.4382 58.417 86.4562L96.8338 92.7717C97.143 92.8225 97.4361 92.9446 97.6899 93.1284C97.9438 93.3122 98.1514 93.5526 98.2964 93.8307C98.4415 94.1125 98.5181 94.4247 98.52 94.7418L98.7816 134.999C98.7865 135.43 98.6523 135.852 98.3989 136.201C98.1455 136.55 97.7865 136.809 97.375 136.937Z" fill="#CCCCCC"/>
<path d="M98.2961 93.8307C98.27 93.8478 98.2413 93.8607 98.2111 93.8687L86.9113 96.9269L83.3936 97.8783L73.3886 100.585C73.36 100.592 73.3308 100.596 73.3014 100.596C73.2812 100.596 73.261 100.594 73.241 100.592L32.8987 93.2284L32.7646 93.2038C32.6772 93.1873 32.5998 93.1369 32.5494 93.0636C32.4991 92.9902 32.4797 92.8999 32.4957 92.8123C32.5117 92.7247 32.5616 92.647 32.6346 92.5962C32.7076 92.5454 32.7978 92.5256 32.8853 92.5411L33.6971 92.6889L73.2879 99.9156L81.911 97.5828L86.7346 96.2776L97.86 93.2665L98.0367 93.2195C98.1131 93.1993 98.1941 93.2066 98.2656 93.2402C98.3372 93.2737 98.3946 93.3314 98.4281 93.403C98.4367 93.4202 98.4435 93.4382 98.4482 93.4568C98.4666 93.5272 98.4618 93.6016 98.4343 93.6691C98.4069 93.7365 98.3584 93.7932 98.2961 93.8307Z" fill="#CCCCCC"/>
<path d="M73.6367 137.2C73.4528 137.2 73.303 137.052 73.3013 138L72.9658 101.396C72.9641 100.078 73.113 99.9263 73.2982 99.9246H73.3013C73.4851 99.9246 73.635 100.073 73.6367 101.39L73.9721 137.994C73.9739 137.047 73.825 137.198 73.6398 137.2H73.6367Z" fill="#CCCCCC"/>
<path d="M87.0065 137.625L83.3937 137.663L81.9111 97.5828L44.0801 90.0471C44.0431 90.0406 44.0065 90.0316 43.9706 90.0203C43.68 89.9374 43.4261 89.7582 43.2505 89.5121L48.4163 88.1733L49.9347 88.4755L85.8313 95.6239C86.02 95.6612 86.1985 95.739 86.3544 95.8518C86.5104 95.9646 86.6401 96.1099 86.7347 96.2776C86.8465 96.4724 87.0042 137.392 87.0065 137.625Z" fill="#CCCCCC"/>
<path d="M115.944 21.377C115.941 20.8997 115.77 20.4389 115.46 20.0763C115.149 19.7137 114.721 19.4728 114.251 19.3962L85.2976 14.6364C85.02 14.5904 84.7358 14.6031 84.4633 14.6736L77.678 16.43L73.7848 17.439L66.6001 19.2983C66.1664 19.4111 65.7823 19.6648 65.5081 20.0196C65.2339 20.3744 65.0851 20.8103 65.085 21.2589V45.0154C65.0871 45.4785 65.2469 45.9269 65.538 46.2867C65.8291 46.6466 66.2341 46.8962 66.6861 46.9946L96.1767 53.2762C96.3151 53.306 96.4564 53.3207 96.598 53.3201C96.8044 53.3205 97.0096 53.2892 97.2064 53.2273L114.728 47.688C115.141 47.5589 115.502 47.2997 115.757 46.9489C116.011 46.5982 116.146 46.1746 116.142 45.741L115.944 21.377Z" fill="white"/>
<path d="M84.9697 16.381C84.9485 16.381 84.9275 16.3837 84.907 16.3891L67.0437 21.0139C66.9895 21.0279 66.9416 21.0596 66.9073 21.1039C66.8731 21.1481 66.8545 21.2026 66.8545 21.2586V45.0147C66.8547 45.0726 66.8746 45.1286 66.911 45.1736C66.9473 45.2186 66.9979 45.2498 67.0544 45.2621L96.545 51.5436C96.5877 51.5526 96.632 51.5504 96.6737 51.5374L114.195 45.9983C114.247 45.9821 114.292 45.9498 114.324 45.9059C114.355 45.8621 114.372 45.8092 114.371 45.7551L114.175 21.3912C114.175 21.3316 114.153 21.2741 114.114 21.2288C114.076 21.1835 114.022 21.1534 113.963 21.1439L85.0105 16.3843C84.997 16.3821 84.9833 16.381 84.9697 16.381Z" fill="#31A2C6"/>
<path d="M115.944 21.377C115.941 20.8997 115.77 20.4389 115.46 20.0763C115.149 19.7137 114.721 19.4728 114.251 19.3962L85.2976 14.6364C85.02 14.5904 84.7358 14.6031 84.4633 14.6736L77.678 16.43L73.7848 17.439L66.6001 19.2983C66.1664 19.4111 65.7823 19.6648 65.5081 20.0196C65.2339 20.3744 65.0851 20.8103 65.085 21.2589V45.0154C65.0871 45.4785 65.2469 45.9269 65.538 46.2867C65.8291 46.6466 66.2341 46.8962 66.6861 46.9946L96.1767 53.2762C96.3151 53.306 96.4564 53.3207 96.598 53.3201C96.8044 53.3205 97.0096 53.2892 97.2064 53.2273L114.728 47.688C115.141 47.5589 115.502 47.2997 115.757 46.9489C116.011 46.5982 116.146 46.1746 116.142 45.741L115.944 21.377ZM114.576 47.2055L97.0547 52.7447C96.8048 52.8227 96.5391 52.8355 96.2829 52.7819L66.7905 46.5002C66.4517 46.4263 66.1481 46.2388 65.93 45.9689C65.7118 45.699 65.5921 45.3627 65.5906 45.0154V21.2589C65.5908 20.948 65.6862 20.6446 65.864 20.3897C66.0418 20.1347 66.2934 19.9405 66.5849 19.8332C66.6312 19.8158 66.6785 19.8011 66.7265 19.7893L74.3275 17.822L78.8224 16.6578L84.5897 15.1646C84.7134 15.1315 84.8409 15.115 84.969 15.1156C85.0514 15.1156 85.1337 15.1224 85.215 15.1359L114.168 19.8956C114.401 19.9339 114.622 20.0259 114.813 20.1644C115.004 20.303 115.161 20.4842 115.27 20.6937C115.38 20.9061 115.437 21.1414 115.439 21.3804L115.636 45.7444C115.64 46.0696 115.538 46.3874 115.347 46.6506C115.157 46.9138 114.886 47.1084 114.576 47.2055V47.2055Z" fill="#3F3D56"/>
<path d="M115.27 20.6937C115.251 20.7066 115.229 20.7163 115.206 20.7224L106.69 23.0272L104.039 23.7442L96.4987 25.7841C96.4772 25.7894 96.4551 25.7922 96.433 25.7926C96.4177 25.7923 96.4025 25.7911 96.3875 25.7892L65.9834 20.2398L65.8823 20.2212C65.8163 20.2089 65.758 20.1709 65.72 20.1156C65.682 20.0603 65.6674 19.9922 65.6794 19.9262C65.6914 19.8601 65.7291 19.8016 65.7842 19.7633C65.8393 19.725 65.9073 19.7101 65.9733 19.7218L66.5851 19.8332L96.4229 25.2796L102.922 23.5215L106.557 22.5378L114.942 20.2685L115.075 20.2331C115.132 20.2179 115.193 20.2234 115.247 20.2487C115.301 20.274 115.345 20.3174 115.37 20.3714C115.376 20.3843 115.381 20.3979 115.385 20.4119C115.399 20.465 115.395 20.5211 115.375 20.5719C115.354 20.6227 115.317 20.6654 115.27 20.6937Z" fill="#3F3D56"/>
<path d="M96.6858 53.3792C96.6191 53.3792 96.5552 53.3528 96.5079 53.3059C96.4605 53.2589 96.4336 53.1951 96.433 53.1284L96.1802 25.5418C96.1796 25.4747 96.2056 25.4101 96.2526 25.3622C96.2996 25.3143 96.3636 25.287 96.4307 25.2864H96.433C96.4996 25.2864 96.5636 25.3127 96.6109 25.3597C96.6583 25.4067 96.6852 25.4704 96.6858 25.5372L96.9386 53.1238C96.9392 53.1909 96.9131 53.2555 96.8662 53.3034C96.8192 53.3513 96.7551 53.3785 96.6881 53.3792H96.6858Z" fill="#3F3D56"/>
<path d="M106.69 50.0232L104.039 50.7403L102.921 23.5215L74.41 17.8422C74.382 17.8373 74.3544 17.8305 74.3274 17.822C74.1084 17.7595 73.917 17.6245 73.7847 17.439L77.6779 16.43L78.8223 16.6578L105.876 22.0452C106.018 22.0733 106.153 22.1319 106.27 22.2169C106.388 22.302 106.485 22.4114 106.557 22.5378C106.641 22.6846 106.688 49.8478 106.69 50.0232Z" fill="#3F3D56"/>
<path d="M105.502 34.5042C105.638 34.6203 105.764 34.7469 105.88 34.8829L121.761 33.026L123.306 29.4578L128.989 31.0876L126.868 37.6704C126.697 38.2022 126.358 38.664 125.902 38.9864C125.446 39.3089 124.898 39.4747 124.34 39.4588L106.156 38.9413C105.782 39.518 105.24 39.9669 104.605 40.2281C103.969 40.4894 103.269 40.5507 102.597 40.4038C101.926 40.257 101.315 39.9089 100.846 39.406C100.377 38.9031 100.072 38.2692 99.9714 37.5885C99.871 36.9079 99.98 36.2127 100.284 35.5956C100.588 34.9785 101.072 34.4686 101.672 34.1337C102.273 33.7989 102.961 33.655 103.645 33.7212C104.329 33.7874 104.977 34.0605 105.502 34.5042Z" fill="#FFB6B6"/>
<path d="M121.389 32.2025C121.303 32.0125 121.258 31.8061 121.259 31.5974C121.259 31.3887 121.305 31.1825 121.392 30.993L124.444 24.3739C124.743 23.349 125.437 22.4849 126.372 21.9711C127.307 21.4573 128.408 21.3357 129.433 21.633C130.457 21.9304 131.322 22.6224 131.838 23.5572C132.354 24.4921 132.478 25.5936 132.184 26.6201L131.179 33.8642C131.15 34.071 131.077 34.2691 130.965 34.4451C130.853 34.6211 130.704 34.7709 130.529 34.8842C130.354 34.9975 130.157 35.0717 129.951 35.1017C129.744 35.1317 129.534 35.1169 129.334 35.0582L122.302 32.9951C122.102 32.9365 121.916 32.8354 121.759 32.6986C121.601 32.5618 121.475 32.3926 121.389 32.2025Z" fill="#3F3D56"/>
<path d="M174.663 137.92H0.336798C0.247642 137.919 0.162224 137.884 0.0992723 137.821C0.0363207 137.757 0.000976562 137.672 0.000976562 137.582C0.000976562 137.493 0.0363207 137.408 0.0992723 137.344C0.162224 137.281 0.247642 137.246 0.336798 137.245H174.663C174.753 137.245 174.838 137.281 174.901 137.344C174.965 137.407 175 137.493 175 137.582C175 137.672 174.965 137.758 174.901 137.821C174.838 137.884 174.753 137.92 174.663 137.92Z" fill="#CACACA"/>
<path d="M33.9753 102.093C39.5697 102.093 44.1049 97.5523 44.1049 91.9517C44.1049 86.351 39.5697 81.8108 33.9753 81.8108C28.3809 81.8108 23.8457 86.351 23.8457 91.9517C23.8457 97.5523 28.3809 102.093 33.9753 102.093Z" fill="#31A2C6"/>
<path d="M32.5933 97.2296C32.4184 97.2296 32.2459 97.1888 32.0894 97.1105C31.933 97.0321 31.7969 96.9184 31.692 96.7783L28.9285 93.0894C28.7492 92.8501 28.6722 92.5492 28.7145 92.2531C28.7567 91.9569 28.9148 91.6897 29.1539 91.5102C29.3929 91.3307 29.6934 91.2537 29.9893 91.296C30.2851 91.3383 30.552 91.4965 30.7313 91.7359L32.5393 94.149L37.1828 87.176C37.2647 87.0522 37.3702 86.9458 37.4932 86.863C37.6162 86.7801 37.7543 86.7223 37.8996 86.693C38.045 86.6636 38.1947 86.6633 38.3402 86.692C38.4856 86.7207 38.624 86.7778 38.7474 86.8602C38.8708 86.9425 38.9767 87.0484 39.0591 87.1718C39.1415 87.2952 39.1988 87.4337 39.2276 87.5793C39.2565 87.7249 39.2563 87.8747 39.2272 88.0203C39.1981 88.1658 39.1406 88.3042 39.0579 88.4274L33.5309 96.7272C33.431 96.8773 33.2965 97.0013 33.1388 97.0886C32.9811 97.1759 32.8048 97.2242 32.6247 97.2292C32.6142 97.2294 32.6038 97.2296 32.5933 97.2296Z" fill="white"/>
<path d="M77.1069 38.0877C77.0754 38.0876 77.0439 38.0841 77.0132 38.0771L68.2445 36.0949C68.1348 36.07 68.0395 36.0025 67.9795 35.9073C67.9195 35.8121 67.8997 35.697 67.9245 35.5872C67.9492 35.4774 68.0165 35.3819 68.1115 35.3217C68.2065 35.2615 68.3215 35.2415 68.4312 35.2661L77.1999 37.2484C77.3018 37.2714 77.3915 37.3312 77.4521 37.4163C77.5126 37.5014 77.5397 37.6058 77.5282 37.7097C77.5167 37.8135 77.4673 37.9095 77.3896 37.9792C77.3119 38.0489 77.2112 38.0875 77.1069 38.0877Z" fill="white"/>
<path d="M43.3593 117.869C43.3285 117.876 43.297 117.879 43.2655 117.878L34.2773 117.727C34.1649 117.724 34.0579 117.678 33.9799 117.597C33.9018 117.516 33.859 117.407 33.8609 117.295C33.8628 117.182 33.9091 117.075 33.9898 116.997C34.0705 116.918 34.179 116.875 34.2913 116.877L43.2796 117.029C43.3839 117.03 43.484 117.071 43.5606 117.142C43.6372 117.212 43.685 117.309 43.6949 117.413C43.7047 117.517 43.676 117.621 43.6141 117.705C43.5522 117.789 43.4615 117.848 43.3593 117.869Z" fill="#E6E6E6"/>
<path d="M46.4711 122.683C46.4403 122.69 46.4088 122.693 46.3773 122.692L37.3891 122.541C37.2767 122.538 37.1698 122.492 37.0917 122.411C37.0136 122.33 36.9708 122.221 36.9727 122.109C36.9746 121.996 37.021 121.889 37.1017 121.811C37.1824 121.732 37.2908 121.689 37.4032 121.691L46.3914 121.843C46.4958 121.844 46.5958 121.885 46.6724 121.956C46.749 122.026 46.7968 122.123 46.8067 122.227C46.8165 122.331 46.7878 122.435 46.7259 122.519C46.664 122.604 46.5733 122.662 46.4711 122.683Z" fill="#E6E6E6"/>
</g>
<defs>
<clipPath id="clip0_26_265">
<rect width="175" height="138" fill="white"/>
</clipPath>
</defs>
</svg>
