<svg viewBox="0 0 249 110" fill="none" xmlns="http://www.w3.org/2000/svg">
<path d="M229.426 109.785C233.069 109.785 236.022 109.399 236.022 108.923C236.022 108.447 233.069 108.061 229.426 108.061C225.783 108.061 222.83 108.447 222.83 108.923C222.83 109.399 225.783 109.785 229.426 109.785Z" fill="#F2F2F2"/>
<path d="M237.121 26.6111H236.572V35.6611H237.121V26.6111Z" fill="#F2F2F2"/>
<path d="M231.075 20.7933H227.777V110H231.075V20.7933Z" fill="#F2F2F2"/>
<path d="M244.525 27.7963H214.327C213.996 27.7963 213.669 27.7411 213.367 27.6343C213.065 27.5275 212.795 27.3716 212.576 27.1769C212.357 26.9822 212.193 26.7532 212.095 26.505C211.997 26.2569 211.968 25.9953 212.009 25.7376L215.857 1.60438C215.928 1.16167 216.203 0.754539 216.63 0.459216C217.056 0.163893 217.606 0.000631258 218.175 0H240.677C241.246 0.000631195 241.796 0.163893 242.222 0.459216C242.649 0.754539 242.924 1.16167 242.995 1.60438L246.843 25.7376C246.884 25.9953 246.855 26.2569 246.757 26.505C246.659 26.7532 246.495 26.9822 246.276 27.1769C246.057 27.3716 245.787 27.5275 245.486 27.6343C245.184 27.7411 244.856 27.7963 244.525 27.7963Z" fill="#F2F2F2"/>
<path d="M236.847 37.1694C237.909 37.1694 238.771 36.4941 238.771 35.6611C238.771 34.8281 237.909 34.1528 236.847 34.1528C235.784 34.1528 234.923 34.8281 234.923 35.6611C234.923 36.4941 235.784 37.1694 236.847 37.1694Z" fill="#F2F2F2"/>
<path d="M34.5084 86.053C33.1199 89.8295 29.0657 92.4731 24.8366 94.7188C24.2461 95.0324 23.6554 95.3388 23.0646 95.638C23.0606 95.6394 23.0564 95.6423 23.0524 95.6437C23.0239 95.658 22.9955 95.6724 22.969 95.6868C22.847 95.7484 22.725 95.8101 22.6041 95.871L22.6705 95.8944C22.6705 95.8944 22.7358 95.9216 22.6644 95.8988C22.6432 95.8918 22.6209 95.8856 22.5997 95.8786C20.1429 95.1017 17.6424 94.2676 15.7596 92.8122C13.8065 91.301 12.6651 88.9307 13.7227 86.9453C13.8617 86.6852 14.0373 86.4381 14.2462 86.2086C14.332 86.1124 14.4244 86.0203 14.5206 85.9299C15.104 85.3716 15.8665 84.9453 16.7297 84.6947C17.5928 84.4441 18.5256 84.3783 19.432 84.504C20.3384 84.6298 21.1857 84.9425 21.8868 85.4101C22.588 85.8777 23.1176 86.4832 23.4213 87.1645C23.732 84.8964 21.3466 82.9966 19.051 81.5948C16.7545 80.1938 14.1449 78.668 13.7009 76.4125C13.453 75.1576 14.0096 73.9415 15.0235 72.9652C15.0549 72.9356 15.0862 72.9059 15.1185 72.8771C16.3528 71.74 18.0887 71.0099 19.9796 70.8325C23.5011 70.5455 26.9217 72.007 29.48 73.9266C33.5976 77.0151 36.0868 81.7591 34.5084 86.053Z" fill="#F2F2F2"/>
<path d="M27.8891 81.1134C28.5649 81.9378 29.0838 82.8351 29.4294 83.7769C29.7216 84.6187 29.8517 85.49 29.8153 86.3619C29.721 88.1561 29.0785 89.9063 27.9419 91.4653C27.0857 92.6481 26.0423 93.7412 24.8365 94.7188C24.246 95.0325 23.6553 95.3389 23.0644 95.638C23.0604 95.6394 23.0563 95.6424 23.0522 95.6438C23.0238 95.6581 22.9953 95.6724 22.9688 95.6868C22.8469 95.7485 22.7249 95.8101 22.604 95.8711C22.604 95.8711 22.7356 95.9217 22.6643 95.8988C22.643 95.8919 22.6208 95.8856 22.5996 95.8786C22.8198 94.4632 22.6041 93.027 21.9705 91.6905C21.337 90.3539 20.304 89.1559 18.9583 88.1967C17.6093 87.2522 15.9947 86.571 14.2461 86.2087C14.3319 86.1124 14.4243 86.0203 14.5205 85.9299C15.1958 86.0784 15.8531 86.2734 16.4846 86.5126C18.7421 87.3626 20.5906 88.7598 21.7564 90.4975C22.8026 92.0754 23.2529 93.8546 23.0544 95.6261C23.1553 95.5544 23.2564 95.4811 23.3544 95.4085C25.2213 94.0439 26.8795 92.4775 28.0017 90.6698C28.9753 89.1389 29.4538 87.4438 29.3951 85.7338C29.3035 83.8693 28.3559 82.1422 26.984 80.6387C25.4803 79.0346 23.704 77.5993 21.7043 76.3726C19.689 75.1071 17.4838 74.0397 15.1379 73.1942C15.085 73.1749 15.0436 73.1403 15.0223 73.0977C15.0009 73.0551 15.0013 73.0077 15.0234 72.9653C15.039 72.9272 15.0732 72.8955 15.1184 72.8771C15.1417 72.8693 15.167 72.8656 15.1923 72.8665C15.2176 72.8673 15.2424 72.8726 15.2648 72.882C15.5544 72.9865 15.842 73.0925 16.1274 73.2031C18.5039 74.124 20.7253 75.2729 22.7406 76.6232C24.6872 77.9244 26.5198 79.411 27.8891 81.1134Z" fill="white"/>
<path d="M14.4632 95.5632H29.6791C29.846 95.5632 30.011 95.591 30.1631 95.6448C30.3153 95.6986 30.4511 95.7772 30.5615 95.8753C30.672 95.9734 30.7546 96.0888 30.8038 96.2138C30.853 96.3388 30.8678 96.4707 30.8471 96.6005L28.9083 108.761C28.8723 108.984 28.7339 109.189 28.5189 109.338C28.3039 109.486 28.0271 109.569 27.7403 109.569H16.402C16.1152 109.569 15.8384 109.486 15.6234 109.338C15.4084 109.189 15.27 108.984 15.234 108.761L13.2952 96.6005C13.2745 96.4707 13.2893 96.3388 13.3385 96.2138C13.3877 96.0888 13.4703 95.9734 13.5808 95.8753C13.6912 95.7772 13.827 95.6986 13.9792 95.6448C14.1313 95.591 14.2963 95.5632 14.4632 95.5632Z" fill="#F2F2F2"/>
<path d="M64.0744 109.663C65.1261 109.663 65.9787 108.994 65.9787 108.17C65.9787 107.345 65.1261 106.677 64.0744 106.677C63.0227 106.677 62.1702 107.345 62.1702 108.17C62.1702 108.994 63.0227 109.663 64.0744 109.663Z" fill="#CCCCCC"/>
<path d="M184.36 109.663C185.411 109.663 186.264 108.994 186.264 108.17C186.264 107.345 185.411 106.677 184.36 106.677C183.308 106.677 182.455 107.345 182.455 108.17C182.455 108.994 183.308 109.663 184.36 109.663Z" fill="#CCCCCC"/>
<path d="M98.9855 87.3924H69.1522C67.7638 87.3912 66.4328 86.9583 65.4511 86.1886C64.4693 85.4189 63.9171 84.3753 63.9155 83.2868V67.3618C63.9171 66.2733 64.4693 65.2297 65.4511 64.46C66.4328 63.6903 67.7638 63.2574 69.1522 63.2562H98.9855C100.374 63.2574 101.705 63.6903 102.687 64.46C103.668 65.2297 104.221 66.2733 104.222 67.3618V83.2868C104.221 84.3753 103.668 85.4189 102.687 86.1886C101.705 86.9583 100.374 87.3912 98.9855 87.3924Z" fill="#E6E6E6"/>
<path d="M139.133 87.5169H109.3C107.912 87.5156 106.581 87.0827 105.599 86.313C104.617 85.5433 104.065 84.4997 104.063 83.4112V67.4862C104.065 66.3977 104.617 65.3542 105.599 64.5845C106.581 63.8148 107.912 63.3818 109.3 63.3806H139.133C140.522 63.3818 141.853 63.8148 142.835 64.5845C143.816 65.3542 144.369 66.3977 144.37 67.4862V83.4112C144.369 84.4997 143.816 85.5433 142.835 86.313C141.853 87.0827 140.522 87.5156 139.133 87.5169Z" fill="#E6E6E6"/>
<path d="M179.281 87.6413H149.448C148.06 87.64 146.729 87.2071 145.747 86.4374C144.765 85.6677 144.213 84.6241 144.211 83.5356V67.6107C144.213 66.5222 144.765 65.4786 145.747 64.7089C146.729 63.9392 148.06 63.5062 149.448 63.505H179.281C180.67 63.5062 182.001 63.9392 182.983 64.7089C183.964 65.4786 184.516 66.5222 184.518 67.6107V83.5356C184.516 84.6241 183.964 85.6677 182.983 86.4374C182.001 87.2071 180.67 87.64 179.281 87.6413Z" fill="#E6E6E6"/>
<path d="M190.707 86.5216H59.3137V108.045H190.707V86.5216Z" fill="#E6E6E6"/>
<path d="M64.0744 108.17H58.3617C55.4742 108.17 53.125 106.078 53.125 103.508V81.0474H64.0744V108.17Z" fill="#E6E6E6"/>
<path d="M190.072 108.17H184.359V77.5638H195.309V102.909C195.309 105.81 192.96 108.17 190.072 108.17Z" fill="#E6E6E6"/>
<path d="M104.381 91.0005H64.0745V84.2821C77.51 78.2397 90.9456 78.2397 104.381 84.2821V91.0005Z" fill="#CCCCCC"/>
<path d="M144.529 91.1249H104.222V84.4065C117.658 78.3642 131.094 78.3642 144.529 84.4065V91.1249Z" fill="#CCCCCC"/>
<path d="M184.677 91.2493H144.37V84.5309C157.806 78.4885 171.242 78.4885 184.677 84.5309V91.2493Z" fill="#CCCCCC"/>
<path d="M56.2986 86.7704C61.4694 86.7704 65.6611 83.484 65.6611 79.43C65.6611 75.376 61.4694 72.0896 56.2986 72.0896C51.1278 72.0896 46.936 75.376 46.936 79.43C46.936 83.484 51.1278 86.7704 56.2986 86.7704Z" fill="#CCCCCC"/>
<path d="M193.405 86.5216C198.575 86.5216 202.767 83.2351 202.767 79.1811C202.767 75.1271 198.575 71.8407 193.405 71.8407C188.234 71.8407 184.042 75.1271 184.042 79.1811C184.042 83.2351 188.234 86.5216 193.405 86.5216Z" fill="#CCCCCC"/>
<path d="M165.825 64.8007C165.847 64.9187 165.857 65.0379 165.855 65.1571L177.077 71.2214L180.07 70.1106L182.798 73.4326L177.744 75.8028C177.336 75.9942 176.859 76.0767 176.386 76.0378C175.913 75.9988 175.468 75.8406 175.12 75.5869L163.754 67.3164C163.19 67.4408 162.591 67.4277 162.037 67.2788C161.483 67.1298 161 66.8521 160.652 66.4826C160.304 66.1131 160.107 65.6693 160.089 65.2102C160.071 64.7511 160.231 64.2985 160.549 63.9126C160.866 63.5267 161.326 63.2257 161.868 63.0498C162.409 62.8738 163.005 62.8312 163.578 62.9277C164.151 63.0241 164.673 63.2549 165.074 63.5895C165.476 63.9241 165.737 64.3466 165.825 64.8007V64.8007Z" fill="#FFB8B8"/>
<path d="M177.293 70.6995C177.343 70.5657 177.428 70.4418 177.544 70.3362C177.66 70.2307 177.804 70.146 177.966 70.088L183.609 68.0608C184.371 67.6719 185.299 67.5357 186.188 67.6821C187.078 67.8286 187.858 68.2457 188.356 68.8421C188.854 69.4384 189.031 70.1653 188.846 70.8634C188.662 71.5615 188.132 72.1738 187.373 72.5661L182.708 75.8003C182.575 75.8926 182.418 75.9613 182.248 76.0017C182.077 76.0422 181.898 76.0534 181.722 76.0346C181.546 76.0159 181.377 75.9676 181.227 75.8931C181.077 75.8186 180.949 75.7195 180.852 75.6028L177.445 71.4983C177.348 71.3815 177.284 71.2497 177.258 71.1119C177.232 70.974 177.244 70.8334 177.293 70.6995Z" fill="#31A2C6"/>
<path d="M165.684 65.196L165.627 65.1992L165.473 63.5303C165.424 62.9968 164.984 62.5871 164.49 62.6151L161.218 62.8007C160.724 62.8287 159.816 63.315 159.865 63.8484L159.905 64.2783L160.71 73.0041C160.759 73.5376 161.748 73.9162 162.241 73.8882L165.514 73.7026C166.007 73.6746 166.368 73.2194 166.318 72.686L165.737 66.3871L165.793 66.3839L165.684 65.196Z" fill="#3F3D56"/>
<path d="M165.284 63.5478L166.128 72.69C166.164 73.0884 165.895 73.4283 165.526 73.4492L162.239 73.6358C161.87 73.6567 161.541 73.3507 161.504 72.9523L160.661 63.8101C160.624 63.4117 160.893 63.0718 161.262 63.0508L161.66 63.0282C161.633 63.1095 161.639 63.1957 161.678 63.2742C161.716 63.3527 161.786 63.4195 161.876 63.4651C161.914 63.4794 161.956 63.4858 161.998 63.4837L163.872 63.3773C164.048 63.3672 164.175 63.2055 164.158 63.0162C164.154 62.9725 164.142 62.9295 164.123 62.8885L164.55 62.8643C164.918 62.8434 165.247 63.1494 165.284 63.5478Z" fill="white"/>
<path d="M119.157 84.658L118.073 82.1569L129.862 77.6871L131.462 81.3786L119.157 84.658Z" fill="#FFB8B8"/>
<path d="M116.342 86.1202L112.845 78.0556L112.975 78.0209C113.501 77.8807 114.057 77.8231 114.611 77.8514C115.165 77.8797 115.707 77.9932 116.205 78.1856C116.703 78.378 117.148 78.6454 117.514 78.9727C117.881 79.2999 118.161 79.6804 118.34 80.0927L118.34 80.0929L120.476 85.0184L116.342 86.1202Z" fill="#2F2E41"/>
<path d="M165.946 86.443C163.417 86.5544 160.896 86.1405 158.637 85.2434L144.775 77.8497L128.589 82.549C128.159 82.6636 127.69 82.6461 127.276 82.5C126.862 82.3539 126.534 82.0902 126.359 81.7621L125.566 80.266C125.385 79.9295 125.379 79.5508 125.551 79.2113C125.723 78.8718 126.057 78.5987 126.483 78.4507L141.947 73.006C143.804 72.3548 145.887 72.2135 147.858 72.6052L169.326 76.8943L175.001 82.1778L174.938 82.2459C172.152 85.2592 168.848 86.2784 165.946 86.443Z" fill="#2F2E41"/>
<path d="M183.479 64.3653C187.207 64.3653 190.229 61.9958 190.229 59.073C190.229 56.1501 187.207 53.7807 183.479 53.7807C179.751 53.7807 176.729 56.1501 176.729 59.073C176.729 61.9958 179.751 64.3653 183.479 64.3653Z" fill="#FFB8B8"/>
<path d="M176.55 84.5334L165.686 78.1947L173.095 74.0663C172.883 73.5316 171.943 70.4745 177.084 68.3905C178.712 67.731 179.884 67.1632 180.569 66.7031C181.541 66.0457 182.786 65.6896 184.07 65.7019C184.879 65.712 185.674 65.8695 186.392 66.1622C187.11 66.4548 187.732 66.8744 188.207 67.3878C188.683 67.9013 188.999 68.4944 189.132 69.1203C189.264 69.7462 189.209 70.3877 188.971 70.994C187.899 73.7263 186.191 77.3468 184.143 79.0783C181.827 81.0345 179.315 82.8425 176.632 84.4851L176.55 84.5334Z" fill="#31A2C6"/>
<path d="M120.88 86.8744L119.796 84.3731L131.584 79.9035L133.185 83.5948L120.88 86.8744Z" fill="#FFB8B8"/>
<path d="M118.064 88.3364L114.568 80.2718L114.698 80.2372C115.223 80.097 115.779 80.0394 116.333 80.0677C116.888 80.096 117.429 80.2095 117.927 80.4019C118.426 80.5943 118.871 80.8617 119.237 81.1889C119.603 81.5161 119.884 81.8967 120.063 82.3089L120.063 82.3091L122.198 87.2347L118.064 88.3364Z" fill="#2F2E41"/>
<path d="M167.668 88.6593C165.14 88.7706 162.619 88.3568 160.36 87.4596L146.498 80.066L130.311 84.7652C129.882 84.8798 129.412 84.8623 128.999 84.7163C128.585 84.5702 128.257 84.3065 128.082 83.9783L127.288 82.4822C127.107 82.1457 127.102 81.767 127.274 81.4275C127.445 81.088 127.78 80.8149 128.206 80.667L143.67 75.2223C145.527 74.571 147.609 74.4298 149.581 74.8215L171.049 79.1106L176.724 84.394L176.66 84.4622C173.875 87.4754 170.571 88.4947 167.668 88.6593Z" fill="#2F2E41"/>
<path d="M164.553 71.1492C164.637 71.2486 164.711 71.353 164.774 71.4614L178.227 73.1746L180.326 71.1662L184.605 73.2524L181.332 77.091C181.068 77.4011 180.682 77.6355 180.233 77.7592C179.784 77.8828 179.296 77.889 178.843 77.7767L164.055 74.1179C163.613 74.4196 163.065 74.6088 162.483 74.6602C161.9 74.7117 161.312 74.6229 160.796 74.4058C160.28 74.1887 159.86 73.8534 159.593 73.4447C159.325 73.036 159.223 72.5732 159.299 72.1178C159.376 71.6624 159.627 71.236 160.02 70.8954C160.413 70.5547 160.929 70.3159 161.499 70.2108C162.07 70.1056 162.667 70.1391 163.213 70.3068C163.758 70.4744 164.225 70.7682 164.553 71.1492Z" fill="#FFB8B8"/>
<path d="M178.138 72.6304C178.11 72.4929 178.119 72.3522 178.166 72.2178C178.214 72.0835 178.297 71.9587 178.412 71.8521L182.404 68.1258C182.881 67.5185 183.645 67.0841 184.529 66.9177C185.413 66.7513 186.345 66.8666 187.121 67.2383C187.897 67.61 188.453 68.2077 188.668 68.9005C188.883 69.5932 188.738 70.3244 188.266 70.9338L185.816 75.4225C185.747 75.5506 185.642 75.6654 185.511 75.759C185.379 75.8527 185.223 75.923 185.054 75.9652C184.884 76.0073 184.705 76.0204 184.529 76.0034C184.353 75.9865 184.183 75.9399 184.032 75.8669L178.711 73.3015C178.56 73.2285 178.43 73.1308 178.331 73.015C178.232 72.8992 178.166 72.768 178.138 72.6304Z" fill="#31A2C6"/>
<path d="M181.674 64.9015C183.635 62.9229 184.723 60.498 184.773 57.9925C183.85 58.5304 182.805 58.9262 181.693 59.1588C180.514 59.405 179.217 59.4546 178.106 59.0579C176.543 58.4995 175.618 57.0755 175.796 55.7358C175.973 54.3961 177.154 53.1993 178.692 52.5985C180.266 52.0214 182.061 51.9362 183.712 52.3602C184.586 51.7769 185.655 51.4034 186.792 51.2844C187.93 51.1654 189.087 51.3059 190.125 51.6892C192.514 52.6086 193.836 54.7378 194.065 56.8168C194.294 58.8958 193.613 60.9629 192.937 62.9813L192.861 63.2094C192.651 63.8378 192.04 65.0434 192.04 65.0434C192.04 65.0434 188.49 64.4942 187.08 64.1421C185.035 64.7213 181.674 64.9015 181.674 64.9015Z" fill="#2F2E41"/>
<path d="M164.753 65.4087L161.861 65.5728C161.788 65.5769 161.716 65.5582 161.661 65.5208C161.606 65.4834 161.572 65.4304 161.567 65.3734C161.562 65.3164 161.585 65.2601 161.633 65.2169C161.681 65.1736 161.748 65.147 161.821 65.1429L164.713 64.9788C164.75 64.9767 164.786 64.9802 164.82 64.9891C164.854 64.998 164.886 65.0121 164.914 65.0306C164.941 65.0491 164.963 65.0717 164.98 65.097C164.996 65.1223 165.005 65.1499 165.008 65.1782C165.011 65.2064 165.006 65.2348 164.995 65.2617C164.983 65.2886 164.965 65.3135 164.942 65.3349C164.918 65.3563 164.889 65.3738 164.857 65.3865C164.824 65.3991 164.789 65.4067 164.753 65.4087Z" fill="#3F3D56"/>
<path d="M164.852 66.4833L161.96 66.6473C161.924 66.6494 161.888 66.646 161.853 66.6371C161.819 66.6282 161.787 66.6141 161.76 66.5956C161.732 66.5771 161.71 66.5545 161.694 66.5292C161.678 66.5039 161.668 66.4763 161.665 66.448C161.663 66.4197 161.667 66.3914 161.679 66.3645C161.69 66.3376 161.708 66.3127 161.732 66.2913C161.755 66.2699 161.784 66.2524 161.817 66.2397C161.849 66.227 161.884 66.2195 161.92 66.2175L164.812 66.0534C164.885 66.0493 164.957 66.068 165.012 66.1054C165.067 66.1428 165.101 66.1958 165.106 66.2528C165.112 66.3098 165.088 66.3661 165.04 66.4093C164.992 66.4525 164.925 66.4791 164.852 66.4833Z" fill="#3F3D56"/>
<path d="M164.951 67.5578L162.059 67.7219C161.986 67.7259 161.915 67.7071 161.86 67.6697C161.805 67.6324 161.771 67.5794 161.766 67.5225C161.76 67.4656 161.784 67.4093 161.832 67.3661C161.879 67.3229 161.947 67.2963 162.019 67.2921L164.912 67.128C164.984 67.1238 165.056 67.1425 165.111 67.1799C165.166 67.2173 165.2 67.2703 165.206 67.3273C165.211 67.3843 165.187 67.4406 165.139 67.4839C165.092 67.5271 165.024 67.5537 164.951 67.5578Z" fill="#3F3D56"/>
<path d="M248.725 110H0.274834C0.201944 110 0.132038 109.977 0.0804969 109.937C0.0289555 109.896 0 109.842 0 109.785C0 109.727 0.0289555 109.673 0.0804969 109.632C0.132038 109.592 0.201944 109.569 0.274834 109.569H248.725C248.798 109.569 248.868 109.592 248.92 109.632C248.971 109.673 249 109.727 249 109.785C249 109.842 248.971 109.896 248.92 109.937C248.868 109.977 248.798 110 248.725 110Z" fill="#3F3D56"/>
<path d="M132.135 38.2468H104.377C103.721 38.2462 103.092 38.0417 102.628 37.6782C102.165 37.3146 101.904 36.8217 101.903 36.3076V17.5612C101.904 17.0471 102.165 16.5542 102.628 16.1906C103.092 15.827 103.721 15.6225 104.377 15.6219H132.135C132.791 15.6225 133.419 15.827 133.883 16.1906C134.347 16.5542 134.608 17.0471 134.608 17.5612V36.3076C134.608 36.8217 134.347 37.3146 133.883 37.6782C133.419 38.0417 132.791 38.2462 132.135 38.2468ZM104.377 16.0529C103.867 16.0533 103.378 16.2124 103.017 16.4952C102.656 16.7779 102.453 17.1613 102.453 17.5612V36.3076C102.453 36.7074 102.656 37.0908 103.017 37.3736C103.378 37.6564 103.867 37.8154 104.377 37.8159H132.135C132.645 37.8154 133.134 37.6564 133.495 37.3736C133.855 37.0908 134.058 36.7074 134.059 36.3076V17.5612C134.058 17.1613 133.855 16.7779 133.495 16.4952C133.134 16.2124 132.645 16.0533 132.135 16.0529H104.377Z" fill="#F2F2F2"/>
<path d="M128.076 35.3379H108.435C107.816 35.3374 107.222 35.1442 106.784 34.8009C106.346 34.4575 106.1 33.992 106.099 33.5064V20.3624C106.1 19.8768 106.346 19.4113 106.784 19.0679C107.222 18.7245 107.816 18.5314 108.435 18.5309H128.076C128.696 18.5314 129.289 18.7245 129.727 19.0679C130.165 19.4113 130.412 19.8768 130.412 20.3624V33.5064C130.412 33.992 130.165 34.4575 129.727 34.8009C129.289 35.1442 128.696 35.3374 128.076 35.3379Z" fill="#E6E6E6"/>
<path d="M118.393 12.8208C119.152 12.8208 119.767 12.3384 119.767 11.7434C119.767 11.1484 119.152 10.666 118.393 10.666C117.634 10.666 117.019 11.1484 117.019 11.7434C117.019 12.3384 117.634 12.8208 118.393 12.8208Z" fill="#F2F2F2"/>
<path d="M121.282 15.9482L118.394 12.1638L115.522 15.9475L115.049 15.7273L118.392 11.323L121.754 15.7267L121.282 15.9482Z" fill="#F2F2F2"/>
<path d="M121.554 25.4261C121.553 25.0999 121.507 24.7748 121.417 24.4564H117.294C117.002 24.4564 116.722 24.5472 116.516 24.7089C116.31 24.8705 116.194 25.0897 116.194 25.3183V29.9347C117.649 29.8538 119.011 29.3436 120.005 28.5071C121 27.6705 121.553 26.5696 121.554 25.4261Z" fill="#31A2C6"/>
<path d="M115.782 30.1665C114.642 30.1668 113.524 29.9143 112.559 29.438C111.594 28.9618 110.82 28.2812 110.328 27.4749C109.835 26.6687 109.643 25.7695 109.774 24.8814C109.905 23.9932 110.353 23.1522 111.068 22.4554C111.783 21.7586 112.734 21.2345 113.813 20.9436C114.891 20.6527 116.052 20.6067 117.162 20.8112C118.273 21.0156 119.286 21.462 120.087 22.0989C120.887 22.7357 121.442 23.5371 121.686 24.4104L121.759 24.6719H117.294C117.075 24.6721 116.866 24.7403 116.711 24.8614C116.556 24.9826 116.469 25.1469 116.469 25.3183V30.1355L116.166 30.1523C116.039 30.1596 115.912 30.1665 115.782 30.1665ZM115.782 21.1166C114.324 21.1166 112.926 21.5706 111.895 22.3788C110.865 23.187 110.285 24.2831 110.285 25.4261C110.285 26.569 110.865 27.6651 111.895 28.4733C112.926 29.2815 114.324 29.7356 115.782 29.7356C115.828 29.7356 115.874 29.7345 115.92 29.7328V25.3183C115.92 25.0327 116.065 24.7588 116.323 24.5569C116.58 24.3549 116.929 24.2413 117.294 24.2409H121.065C120.732 23.3431 120.038 22.5537 119.086 21.9906C118.134 21.4275 116.975 21.1209 115.782 21.1166Z" fill="white"/>
<path d="M123.89 31.5671H117.294C116.929 31.5668 116.58 31.4531 116.322 31.2512C116.065 31.0492 115.92 30.7754 115.919 30.4897V29.734L116.175 29.7198C116.962 29.6772 117.728 29.502 118.42 29.2061C119.113 28.9102 119.716 28.5007 120.188 28.0054C120.66 27.5101 120.99 26.9407 121.156 26.3362C121.322 25.7317 121.32 25.1062 121.149 24.5025L121.076 24.2409H123.89C124.254 24.2413 124.603 24.3549 124.861 24.5569C125.118 24.7588 125.263 25.0327 125.264 25.3183V30.4897C125.263 30.7754 125.118 31.0492 124.861 31.2512C124.603 31.4531 124.254 31.5668 123.89 31.5671ZM116.469 30.1311V30.4897C116.469 30.6611 116.556 30.8254 116.711 30.9466C116.865 31.0678 117.075 31.1359 117.294 31.1361H123.89C124.108 31.1359 124.318 31.0678 124.472 30.9466C124.627 30.8254 124.714 30.6611 124.714 30.4897V25.3183C124.714 25.1469 124.627 24.9826 124.472 24.8614C124.318 24.7402 124.108 24.6721 123.89 24.6719H121.749C121.802 24.9212 121.828 25.1734 121.828 25.426C121.823 26.5884 121.275 27.709 120.288 28.576C119.3 29.443 117.942 29.9963 116.469 30.1311Z" fill="white"/>
</svg>
