<svg viewBox="0 0 249 110" fill="none" xmlns="http://www.w3.org/2000/svg">
<g clip-path="url(#clip0_26_47)">
<path d="M74.0781 90.5706C73.222 97.3033 70.0742 103.463 66.7161 109.397C66.6051 109.599 66.4909 109.798 66.3738 110H31.4717C30.7658 109.816 30.069 109.614 29.3752 109.397C25.4331 108.192 21.7115 106.354 18.3549 103.955C5.51446 94.6681 0.573452 77.1202 2.8052 61.3964C4.19291 51.6274 8.46397 41.6535 16.781 36.3921C21.1723 33.6091 26.813 32.7046 31.8681 33.7388C32.0004 33.7629 32.1326 33.7931 32.2677 33.8202C36.6169 34.8031 40.4915 37.2454 42.6963 41.1801C46.661 48.2505 44.3002 57.0094 42.3509 64.8789C40.4075 72.7483 39.3531 82.1675 44.994 87.9716C43.1317 82.469 44.97 75.9051 49.4183 72.1845C52.7794 69.3774 57.459 68.3251 61.7272 69.1965C62.1356 69.2839 62.5382 69.3834 62.9346 69.504C63.8928 69.7857 64.8167 70.1741 65.6889 70.6618C72.3419 74.3915 75.0362 82.9816 74.0781 90.5706Z" fill="#F2F2F2"/>
<path d="M53.3833 109.397C54.3504 109.623 55.3206 109.822 56.2967 110H51.0194C50.3285 109.813 49.6407 109.614 48.959 109.397C47.4601 108.927 45.9843 108.387 44.5316 107.778C38.7046 105.324 33.3371 101.639 29.2762 96.7365C27.2901 94.3613 25.6684 91.7018 24.4644 88.846C23.1589 85.6182 22.3292 82.2165 22.0015 78.7484C21.2656 71.6327 22.0165 64.3211 23.4191 57.332C24.8667 50.0883 27.2033 43.0526 30.3756 36.3861C30.757 35.5871 31.1515 34.7931 31.559 34.0041C31.587 33.9392 31.6294 33.8815 31.683 33.8355C31.7366 33.7896 31.8 33.7565 31.8683 33.7388C32.0069 33.7118 32.1506 33.7411 32.2678 33.8202C32.4085 33.9012 32.5128 34.0334 32.5591 34.1893C32.6055 34.3453 32.5905 34.5132 32.5171 34.6584C29.2464 41.0612 26.767 47.8412 25.1342 54.8476C23.5363 61.6829 22.6292 68.8347 22.9385 75.8629C23.2329 82.4298 24.9421 88.8882 28.8196 94.2581C32.3609 99.1607 37.2507 103.026 42.6603 105.658C46.0843 107.303 49.6811 108.557 53.3833 109.397Z" fill="white"/>
<path d="M64.9653 110H63.4094C63.2351 109.801 63.0669 109.599 62.9018 109.397C59.3578 105.075 56.957 99.9247 55.9213 94.4239C54.6635 87.5592 55.642 80.4704 58.7116 74.2076C59.5681 72.4515 60.5772 70.7746 61.7273 69.1965C62.1357 69.2839 62.5383 69.3834 62.9347 69.504C59.9097 73.5274 57.8749 78.2116 56.9966 83.1746C56.213 87.8251 56.4735 92.5925 57.7591 97.129C59.0447 101.666 61.323 105.857 64.4276 109.397C64.6017 109.599 64.782 109.801 64.9653 110Z" fill="white"/>
<path d="M205.126 104.872C205.352 106.649 206.183 108.275 207.069 109.841C207.098 109.894 207.128 109.947 207.159 110H216.371C216.557 109.952 216.741 109.898 216.924 109.841C217.964 109.523 218.946 109.038 219.832 108.405C223.221 105.954 224.525 101.322 223.936 97.1727C223.57 94.5944 222.443 91.9621 220.248 90.5735C219.056 89.8448 217.634 89.5947 216.266 89.8733C216.231 89.8797 216.196 89.8876 216.161 89.8948C215.591 90.0052 215.052 90.2355 214.577 90.5702C214.103 90.905 213.704 91.3368 213.408 91.8372C212.362 93.7032 212.985 96.0148 213.499 98.0917C214.012 100.169 214.291 102.655 212.802 104.186C213.02 103.546 213.064 102.858 212.93 102.195C212.796 101.531 212.488 100.916 212.039 100.411C211.589 99.9066 211.014 99.5313 210.371 99.324C209.729 99.1166 209.044 99.0846 208.386 99.2312C208.278 99.2543 208.172 99.2806 208.067 99.3124C207.814 99.3868 207.57 99.4892 207.34 99.618C205.584 100.602 204.873 102.869 205.126 104.872Z" fill="#F2F2F2"/>
<path d="M210.588 109.841C210.333 109.901 210.076 109.953 209.819 110H211.212C211.394 109.951 211.576 109.898 211.755 109.841C212.151 109.717 212.54 109.574 212.924 109.414C214.479 108.78 215.86 107.78 216.95 106.5C217.474 105.873 217.902 105.171 218.22 104.417C218.565 103.565 218.783 102.667 218.87 101.752C219.028 99.8599 218.902 97.9546 218.496 96.1C218.114 94.1882 217.497 92.3314 216.66 90.5719C216.559 90.3611 216.455 90.1515 216.348 89.9433C216.34 89.9262 216.329 89.9109 216.315 89.8988C216.301 89.8867 216.284 89.8779 216.266 89.8733C216.229 89.8662 216.191 89.8739 216.161 89.8948C216.123 89.9161 216.096 89.951 216.084 89.9922C216.071 90.0333 216.075 90.0777 216.095 90.116C216.958 91.8058 217.612 93.5952 218.043 95.4443C218.487 97.258 218.682 99.124 218.623 100.991C218.591 102.727 218.051 104.415 217.071 105.845C216.117 107.134 214.863 108.167 213.418 108.854C212.514 109.288 211.565 109.619 210.588 109.841Z" fill="white"/>
<path d="M207.531 110H207.942C207.988 109.947 208.032 109.894 208.076 109.841C209.011 108.7 209.645 107.341 209.918 105.889C210.25 104.077 209.992 102.207 209.181 100.554C208.955 100.09 208.689 99.6477 208.386 99.2312C208.278 99.2543 208.172 99.2805 208.067 99.3124C208.865 100.374 209.402 101.61 209.634 102.92C209.841 104.148 209.772 105.406 209.433 106.603C209.094 107.8 208.492 108.907 207.673 109.841C207.627 109.894 207.579 109.947 207.531 110Z" fill="white"/>
<path d="M122.1 64.0736H93.2711L92.9654 55.1758C92.9522 54.7901 93.0224 54.4061 93.1712 54.0502C93.32 53.6943 93.5438 53.375 93.8273 53.1143C94.1108 52.8536 94.4472 52.6576 94.8133 52.5399C95.1795 52.4222 95.5667 52.3856 95.9483 52.4325L112.725 54.4946H112.727C115.214 54.5013 117.597 55.4974 119.354 57.2647C121.111 59.0319 122.098 61.4261 122.1 63.9228V64.0736Z" fill="#31A2C6"/>
<path d="M109.251 32.5117H89.144C88.8766 32.5116 88.6118 32.5644 88.3648 32.6671C88.1177 32.7698 87.8932 32.9203 87.7041 33.1102C87.515 33.3 87.3651 33.5253 87.2628 33.7733C87.1605 34.0213 87.1078 34.2872 87.1079 34.5556V54.7394C87.1078 55.0078 87.1605 55.2736 87.2628 55.5216C87.3651 55.7696 87.515 55.995 87.7041 56.1848C87.8932 56.3746 88.1177 56.5252 88.3648 56.6279C88.6118 56.7305 88.8766 56.7834 89.144 56.7833H109.251C109.518 56.7834 109.783 56.7306 110.03 56.6279C110.277 56.5252 110.502 56.3746 110.691 56.1848C110.88 55.995 111.03 55.7697 111.132 55.5216C111.235 55.2736 111.287 55.0078 111.287 54.7394V34.5556C111.287 34.2872 111.235 34.0213 111.132 33.7733C111.03 33.5253 110.88 33.3 110.691 33.1101C110.502 32.9203 110.277 32.7698 110.03 32.6671C109.783 32.5644 109.518 32.5116 109.251 32.5117Z" fill="#CCCCCC"/>
<path d="M104.722 47.6043L95.2291 49.4601C94.666 49.5695 94.0826 49.4502 93.607 49.1284C93.1314 48.8066 92.8024 48.3086 92.6921 47.7435L91.9623 43.9818C91.8533 43.4166 91.9721 42.831 92.2927 42.3535C92.6133 41.8761 93.1094 41.5458 93.6723 41.4351L103.166 39.5793C103.729 39.4699 104.312 39.5892 104.788 39.911C105.263 40.2328 105.592 40.7308 105.703 41.2959L106.432 45.0576C106.541 45.6228 106.423 46.2084 106.102 46.6859C105.781 47.1633 105.285 47.4936 104.722 47.6043Z" fill="#3F3D56"/>
<path d="M102.823 43.1603L95.5783 44.5765C95.4458 44.6024 95.3084 44.5744 95.1965 44.4987C95.0845 44.4229 95.0071 44.3056 94.9813 44.1726C94.9555 44.0396 94.9834 43.9017 95.0589 43.7893C95.1343 43.677 95.2512 43.5993 95.3837 43.5734L102.629 42.1571C102.761 42.1312 102.898 42.1592 103.01 42.235C103.122 42.3107 103.2 42.428 103.226 42.561C103.251 42.694 103.223 42.8319 103.148 42.9443C103.073 43.0567 102.956 43.1343 102.823 43.1603Z" fill="white"/>
<path d="M101.415 45.2575L97.6676 45.9901C97.5351 46.016 97.3978 45.988 97.2858 45.9122C97.1739 45.8365 97.0965 45.7192 97.0707 45.5862C97.0449 45.4532 97.0728 45.3153 97.1482 45.2029C97.2237 45.0905 97.3405 45.0129 97.473 44.987L101.22 44.2544C101.286 44.2416 101.354 44.2419 101.419 44.2552C101.485 44.2686 101.547 44.2947 101.602 44.3323C101.658 44.3698 101.705 44.4179 101.742 44.4738C101.779 44.5297 101.805 44.5924 101.817 44.6583C101.83 44.7242 101.83 44.7919 101.817 44.8577C101.803 44.9234 101.777 44.9859 101.74 45.0416C101.702 45.0972 101.655 45.1449 101.599 45.182C101.543 45.219 101.481 45.2447 101.415 45.2575Z" fill="white"/>
<path d="M111.287 34.5556V37.2382H87.1079V34.5556C87.1078 34.2872 87.1605 34.0213 87.2628 33.7733C87.3651 33.5253 87.515 33.3 87.7041 33.1102C87.8932 32.9203 88.1177 32.7698 88.3648 32.6671C88.6118 32.5644 88.8766 32.5116 89.144 32.5117H109.251C109.518 32.5116 109.783 32.5644 110.03 32.6671C110.277 32.7698 110.502 32.9203 110.691 33.1102C110.88 33.3 111.03 33.5253 111.132 33.7733C111.234 34.0213 111.287 34.2872 111.287 34.5556Z" fill="#B3B3B3"/>
<path d="M159.57 38.0783C159.431 37.626 159.194 37.2099 158.877 36.8593C158.56 36.5088 158.17 36.2323 157.735 36.0493C157.3 35.8663 156.83 35.7814 156.359 35.8004C155.887 35.8194 155.426 35.9419 155.007 36.1593L127.345 26.1965L126.126 33.1334L153.7 40.7452C154.111 41.4277 154.757 41.9354 155.515 42.172C156.273 42.4086 157.092 42.3577 157.815 42.029C158.539 41.7002 159.117 41.1165 159.441 40.3884C159.764 39.6602 159.81 38.8383 159.57 38.0783Z" fill="#FFB8B8"/>
<path opacity="0.2" d="M159.57 38.0783C159.431 37.626 159.194 37.2099 158.877 36.8593C158.56 36.5088 158.17 36.2323 157.735 36.0493C157.3 35.8663 156.83 35.7814 156.359 35.8004C155.887 35.8194 155.426 35.9419 155.007 36.1593L127.345 26.1965L126.126 33.1334L153.7 40.7452C154.111 41.4277 154.757 41.9354 155.515 42.172C156.273 42.4086 157.092 42.3577 157.815 42.029C158.539 41.7002 159.117 41.1165 159.441 40.3884C159.764 39.6602 159.81 38.8383 159.57 38.0783Z" fill="black"/>
<path d="M132.255 27.4606L129.642 34.311C129.568 34.5059 129.453 34.6824 129.304 34.8286C129.156 34.9747 128.978 35.087 128.782 35.1579C128.587 35.2287 128.378 35.2564 128.171 35.2391C127.964 35.2218 127.763 35.1598 127.582 35.0574L121.233 31.4706C120.242 31.0831 119.444 30.317 119.015 29.3401C118.586 28.3632 118.56 27.2552 118.943 26.2592C119.326 25.2631 120.087 24.4602 121.059 24.0264C122.031 23.5927 123.135 23.5635 124.128 23.9453L131.217 25.5236C131.42 25.5689 131.611 25.6575 131.777 25.7835C131.942 25.9094 132.079 26.0698 132.178 26.2536C132.276 26.4374 132.334 26.6404 132.347 26.8487C132.361 27.0569 132.329 27.2656 132.255 27.4606Z" fill="#31A2C6"/>
<path d="M161.748 44.4213L151.836 48.944L153.137 53.8619C155.65 63.3588 156.317 73.2528 155.102 83.0029L162.349 84.5223L168.356 69.1452L166.253 51.6576L161.748 44.4213Z" fill="#31A2C6"/>
<path d="M181.196 67.1854C174.684 67.1854 169.376 71.9378 169.119 77.8891H193.273C193.016 71.9378 187.709 67.1854 181.196 67.1854Z" fill="#3F3D56"/>
<path d="M176.127 68.211C175.788 41.3469 160.546 43.8183 160.546 43.8183C160.546 43.8183 160.831 52.1802 160.968 52.4402C170.681 70.8866 154.652 92.5122 134.248 88.5338C133.864 88.4588 133.494 88.3827 133.139 88.3055C130.554 87.7637 128.272 86.2536 126.756 84.0825C125.24 81.9114 124.606 79.2423 124.981 76.6181C126.991 60.4162 116.994 60.7029 116.994 60.7029H102.376L94.7852 53.8448C94.5172 53.6027 94.1942 53.4302 93.8445 53.3424C93.4948 53.2545 93.129 53.254 92.779 53.3409C92.4291 53.4278 92.1057 53.5995 91.8371 53.8408C91.5685 54.0822 91.3629 54.3859 91.2383 54.7255L90.2617 57.3863C90.2617 57.3863 75.8443 58.8939 77.0457 73.0649H81.5031C81.4923 73.4675 81.5084 73.8704 81.5512 74.2709L114.817 73.9994C116.766 73.9835 118.488 75.5696 118.496 77.527C118.498 78.0036 118.404 78.4756 118.22 78.915C118.036 79.3543 117.766 79.7518 117.425 80.0839C117.085 80.4159 116.681 80.6756 116.238 80.8474C115.795 81.0191 115.322 81.0995 114.848 81.0836L109.485 80.9042C107.833 88.2912 111.888 93.2661 116.356 96.3943C120.562 99.2968 125.554 100.836 130.658 100.804H145.228C164.151 100.804 167.455 84.8238 167.455 84.8238C177.367 80.6026 176.127 68.211 176.127 68.211Z" fill="#3F3D56"/>
<path d="M180.295 109.548C189.626 109.548 197.191 101.954 197.191 92.5877C197.191 83.221 189.626 75.6277 180.295 75.6277C170.964 75.6277 163.4 83.221 163.4 92.5877C163.4 101.954 170.964 109.548 180.295 109.548Z" fill="#3F3D56"/>
<path d="M180.295 96.7446C182.582 96.7446 184.436 94.8835 184.436 92.5877C184.436 90.292 182.582 88.4309 180.295 88.4309C178.008 88.4309 176.154 90.292 176.154 92.5877C176.154 94.8835 178.008 96.7446 180.295 96.7446Z" fill="white"/>
<path d="M94.9924 109.548C105.733 109.548 114.441 100.807 114.441 90.0249C114.441 79.2427 105.733 70.502 94.9924 70.502C84.2513 70.502 75.5439 79.2427 75.5439 90.0249C75.5439 100.807 84.2513 109.548 94.9924 109.548Z" fill="#3F3D56"/>
<path d="M94.9924 94.8099C97.625 94.8099 99.7591 92.6676 99.7591 90.0249C99.7591 87.3822 97.625 85.2399 94.9924 85.2399C92.3597 85.2399 90.2256 87.3822 90.2256 90.0249C90.2256 92.6676 92.3597 94.8099 94.9924 94.8099Z" fill="white"/>
<path d="M151.864 50.2804L148.298 40.5568C148.112 40.05 148.027 39.5114 148.049 38.9718C148.07 38.4323 148.197 37.9022 148.423 37.4119C148.648 36.9217 148.968 36.4808 149.363 36.1145C149.759 35.7482 150.222 35.4636 150.727 35.2771L160.951 31.4988C161.839 31.1704 162.783 31.0209 163.729 31.0588C164.675 31.0967 165.604 31.3212 166.463 31.7195C167.323 32.1178 168.096 32.6822 168.738 33.3803C169.38 34.0785 169.879 34.8967 170.206 35.7884C170.501 36.5887 170.651 37.4353 170.651 38.2887C170.647 39.3722 170.402 40.4412 169.936 41.4181C169.469 42.3949 168.791 43.2551 167.951 43.936C167.344 44.4244 166.663 44.8103 165.932 45.0784L151.864 50.2804Z" fill="#3F3D56"/>
<path d="M170.5 38.2886C170.499 39.35 170.262 40.3978 169.804 41.3547C169.347 42.3117 168.681 43.1535 167.857 43.8183C166.592 43.4834 165.415 42.8761 164.408 42.0385C163.401 41.201 162.588 40.1533 162.024 38.9682C161.461 37.7832 161.162 36.4893 161.148 35.1764C161.133 33.8636 161.403 32.5632 161.94 31.3659C162.97 31.141 164.038 31.1506 165.064 31.3939C166.09 31.6373 167.048 32.1082 167.869 32.7722C168.69 33.4361 169.353 34.2763 169.808 35.2308C170.263 36.1854 170.5 37.2302 170.5 38.2886Z" fill="#31A2C6"/>
<path d="M79.5989 75.0247C81.9213 75.0247 83.8039 72.7298 83.8039 69.899C83.8039 67.0682 81.9213 64.7733 79.5989 64.7733C77.2765 64.7733 75.3938 67.0682 75.3938 69.899C75.3938 72.7298 77.2765 75.0247 79.5989 75.0247Z" fill="#31A2C6"/>
<path d="M135.184 88.0427H138.867L140.619 78.4556L135.184 78.4559L135.184 88.0427Z" fill="#FFB8B8"/>
<path d="M134.245 86.8359L141.497 86.8356H141.497C142.104 86.8356 142.705 86.9556 143.266 87.1887C143.826 87.4219 144.336 87.7636 144.765 88.1944C145.194 88.6252 145.535 89.1366 145.767 89.6994C145.999 90.2623 146.119 90.8655 146.119 91.4748V91.6255L134.245 91.626L134.245 86.8359Z" fill="#2F2E41"/>
<path d="M139.458 84.1078C139.415 84.1078 139.372 84.1058 139.329 84.1017L134.233 83.7292C134.027 83.71 133.828 83.6435 133.652 83.535C133.475 83.4264 133.326 83.2786 133.215 83.1029C133.105 82.9273 133.036 82.7285 133.014 82.5219C132.992 82.3153 133.018 82.1064 133.089 81.9113L139.909 66.5298C139.958 66.3927 139.978 66.2469 139.968 66.1017C139.957 65.9565 139.917 65.8149 139.85 65.6859C139.783 65.5555 139.689 65.4407 139.575 65.3493C139.46 65.2578 139.328 65.1917 139.186 65.1554C135.979 64.3138 127.751 62.0731 120.628 59.4514C117.576 58.3281 115.654 56.7048 114.915 54.6266C113.941 51.8868 115.382 49.3882 115.444 49.2833L115.492 49.2012L122.195 49.8127L129.461 50.4331L145.384 59.0044C146.718 59.7287 147.732 60.9309 148.223 62.3716C148.714 63.8123 148.646 65.3858 148.033 66.7786L140.692 83.3037C140.586 83.543 140.413 83.7463 140.194 83.889C139.975 84.0318 139.719 84.1077 139.458 84.1078Z" fill="#2F2E41"/>
<path d="M123.36 19.3815C127.434 19.3815 130.737 16.066 130.737 11.9761C130.737 7.88617 127.434 4.57065 123.36 4.57065C119.286 4.57065 115.983 7.88617 115.983 11.9761C115.983 16.066 119.286 19.3815 123.36 19.3815Z" fill="#FFB8B8"/>
<path d="M133.082 88.9473H136.764L138.516 79.3601L133.081 79.3604L133.082 88.9473Z" fill="#FFB8B8"/>
<path d="M132.142 87.7405L139.394 87.7401H139.395C140.001 87.7401 140.602 87.8601 141.163 88.0933C141.724 88.3264 142.233 88.6681 142.662 89.0989C143.092 89.5297 143.432 90.0411 143.664 90.6039C143.896 91.1668 144.016 91.77 144.016 92.3793V92.53L132.143 92.5305L132.142 87.7405Z" fill="#2F2E41"/>
<path d="M137.356 85.0124C137.313 85.0124 137.27 85.0103 137.227 85.0062L132.131 84.6337C131.924 84.6146 131.726 84.5481 131.549 84.4395C131.373 84.3309 131.223 84.1831 131.113 84.0075C131.002 83.8318 130.933 83.633 130.911 83.4264C130.889 83.2198 130.915 83.0109 130.986 82.8158L137.807 67.4344C137.855 67.2972 137.875 67.1515 137.865 67.0062C137.855 66.861 137.815 66.7195 137.748 66.5905C137.68 66.46 137.587 66.3453 137.472 66.2538C137.358 66.1624 137.225 66.0963 137.083 66.0599C133.876 65.2184 125.648 62.9777 118.525 60.3559C115.473 59.2326 113.551 57.6093 112.813 55.5311C111.838 52.7913 113.28 50.2927 113.341 50.1879L113.39 50.1057L120.092 50.7173L127.358 51.3377L143.282 59.9089C144.616 60.6332 145.629 61.8355 146.12 63.2762C146.611 64.7169 146.543 66.2904 145.93 67.6832L138.589 84.2083C138.483 84.4476 138.31 84.6509 138.091 84.7936C137.872 84.9363 137.617 85.0123 137.356 85.0124Z" fill="#2F2E41"/>
<path d="M125.635 23.5807L117.826 20.8671C117.826 20.8671 112.923 24.648 115.279 34.0276C116.508 38.8678 116.15 43.977 114.257 48.5967C114.029 49.1683 113.767 49.7252 113.471 50.2644C113.471 50.2644 122.181 60.8173 130.291 52.978L127.137 37.7517C127.137 37.7517 132.093 27.6511 125.635 23.5807Z" fill="#31A2C6"/>
<path d="M124.276 19.6334C123.226 18.0558 122.397 15.8682 123.553 14.3672C124.694 12.8855 126.945 13.1038 128.693 12.4482C131.127 11.535 132.539 8.66442 132.098 6.09364C131.658 3.52285 129.602 1.39175 127.153 0.519768C124.704 -0.352211 121.942 -0.0686228 119.544 0.935515C116.592 2.17162 114.059 4.56278 112.997 7.59175C111.935 10.6207 112.503 14.2576 114.706 16.5857C117.068 19.0817 120.775 19.7469 124.204 19.7066" fill="#2F2E41"/>
<path d="M117.414 6.17614C116.091 7.25732 114.072 6.77711 112.652 5.82824C111.232 4.87937 110.079 3.52823 108.543 2.78428C105.834 1.47272 102.558 2.34461 99.9218 3.79739C97.2852 5.25017 94.948 7.25723 92.1631 8.39729C89.3781 9.53736 85.8242 9.59371 83.7154 7.44101C83.1965 8.95032 83.154 10.5836 83.5939 12.118C84.0338 13.6524 84.9346 15.0132 86.1734 16.0148C87.4122 17.0163 88.9286 17.6098 90.5158 17.7142C92.103 17.8186 93.6837 17.429 95.0421 16.5983C98.0936 14.7325 99.7791 10.8203 103.202 9.79043C105.096 9.22055 107.129 9.67953 109.043 10.1767C110.958 10.6738 112.954 11.211 114.885 10.7878C116.817 10.3645 118.624 8.62198 118.378 6.65262L117.414 6.17614Z" fill="#2F2E41"/>
<path d="M159.203 37.7767C159.009 37.3451 158.723 36.9615 158.365 36.6529C158.008 36.3443 157.587 36.1182 157.133 35.9905C156.678 35.8629 156.202 35.8367 155.736 35.9139C155.271 35.9912 154.828 36.1699 154.439 36.4375L125.763 29.977L125.407 37.0118L153.706 41.1502C154.197 41.7767 154.9 42.2005 155.682 42.3414C156.464 42.4822 157.27 42.3304 157.947 41.9145C158.625 41.4987 159.127 40.8478 159.359 40.0852C159.59 39.3225 159.535 38.5012 159.203 37.7767Z" fill="#FFB8B8"/>
<path d="M130.791 30.6232L129.041 37.7448C128.991 37.9475 128.898 38.1369 128.769 38.3004C128.64 38.4638 128.477 38.5973 128.291 38.6918C128.106 38.7863 127.903 38.8396 127.695 38.8481C127.487 38.8566 127.28 38.82 127.088 38.7408L120.347 35.9677C119.315 35.7066 118.428 35.0452 117.882 34.1287C117.335 33.2122 117.173 32.1154 117.431 31.079C117.689 30.0426 118.345 29.1513 119.257 28.6005C120.169 28.0498 121.261 27.8847 122.294 28.1414L129.523 28.8296C129.73 28.8493 129.931 28.9137 130.111 29.0181C130.291 29.1226 130.446 29.2648 130.566 29.435C130.687 29.6052 130.769 29.7995 130.808 30.0045C130.847 30.2096 130.841 30.4206 130.791 30.6232V30.6232Z" fill="#31A2C6"/>
<path d="M155.891 43.366C157.052 43.366 157.993 42.4211 157.993 41.2554C157.993 40.0898 157.052 39.1449 155.891 39.1449C154.73 39.1449 153.788 40.0898 153.788 41.2554C153.788 42.4211 154.73 43.366 155.891 43.366Z" fill="#31A2C6"/>
<path d="M249 109.698C249 109.778 248.968 109.855 248.912 109.911C248.855 109.968 248.779 110 248.7 110H0.300362C0.220701 110 0.144303 109.968 0.0879737 109.912C0.031645 109.855 0 109.778 0 109.698C0 109.619 0.031645 109.542 0.0879737 109.485C0.144303 109.429 0.220701 109.397 0.300362 109.397H248.7C248.779 109.397 248.855 109.429 248.912 109.486C248.968 109.542 249 109.619 249 109.698Z" fill="#3F3D56"/>
</g>
<defs>
<clipPath id="clip0_26_47">
<rect width="249" height="110" fill="white"/>
</clipPath>
</defs>
</svg>
