<svg  viewBox="0 0 40 40" fill="none" xmlns="http://www.w3.org/2000/svg">
<g clip-path="url(#clip0_26_357)">
<path d="M39.9113 15.3562C39.6973 14.6977 39.1282 14.2179 38.4433 14.1185L26.8265 12.4307L21.6311 1.90312C21.3248 1.2824 20.6925 0.889366 20.0004 0.889366C19.3082 0.889366 18.6759 1.2824 18.3697 1.90312L13.1747 12.4305L1.55754 14.1184C0.872572 14.2179 0.303382 14.6977 0.089526 15.356C-0.12433 16.0145 0.0540046 16.7371 0.549728 17.2202L8.95593 25.4134L6.97073 36.9847C6.85374 37.667 7.13415 38.3564 7.69413 38.7633C8.01091 38.9935 8.38613 39.1106 8.76317 39.1106C9.05255 39.1106 9.34315 39.0416 9.60926 38.9017L20.0003 33.4391L30.3912 38.9017C30.6589 39.0425 30.952 39.1095 31.2424 39.1106C32.2456 39.1092 33.0583 38.2956 33.0583 37.2921C33.0583 37.1525 33.0426 37.0163 33.0127 36.8858L31.0448 25.4136L39.451 17.2202C39.9468 16.7371 40.1251 16.0144 39.9113 15.3562Z" fill="#DEAE33"/>
</g>
<defs>
<clipPath id="clip0_26_357">
<rect width="40" height="40" fill="white"/>
</clipPath>
</defs>
</svg>
