<svg width="43" height="54" viewBox="0 0 43 54" fill="none" xmlns="http://www.w3.org/2000/svg">
<path d="M21.4976 0.201599C15.8645 0.208232 10.464 2.43195 6.48076 6.38496C2.49752 10.338 0.256806 15.6975 0.250122 21.2879C0.250122 39.3303 19.5661 52.9586 20.3885 53.5295C20.7138 53.7549 21.1009 53.8758 21.4976 53.8758C21.8944 53.8758 22.2815 53.7549 22.6068 53.5295C23.4292 52.9586 42.7452 39.3303 42.7452 21.2879C42.7385 15.6975 40.4978 10.338 36.5145 6.38496C32.5313 2.43195 27.1308 0.208232 21.4976 0.201599ZM21.4991 13.6209C23.0272 13.6209 24.521 14.0706 25.7916 14.9131C27.0622 15.7556 28.0525 16.9532 28.6373 18.3543C29.2221 19.7554 29.3751 21.2971 29.077 22.7845C28.7789 24.2719 28.043 25.6382 26.9625 26.7105C25.8819 27.7829 24.5052 28.5132 23.0064 28.809C21.5077 29.1049 19.9542 28.953 18.5423 28.3727C17.1305 27.7923 15.9238 26.8095 15.0749 25.5486C14.2259 24.2876 13.7727 22.8051 13.7727 21.2886C13.7727 20.2817 13.9725 19.2846 14.3608 18.3542C14.7491 17.4239 15.3182 16.5786 16.0357 15.8666C16.7531 15.1546 17.6049 14.5898 18.5423 14.2045C19.4797 13.8191 20.4844 13.6208 21.4991 13.6209Z" fill="#31A2C6"/>
<path d="M31.2882 11.5613H7.07788V32.5947H31.2882V11.5613Z" fill="#31A2C6"/>
<path d="M21.4976 10.303L31.2006 14.1301L21.4976 17.9572L11.7947 14.1301L21.4976 10.303Z" fill="white"/>
<path d="M22.8475 20.3075L33.1013 16.2638V29.0267L22.8475 33.0712V20.3075Z" fill="white"/>
<path d="M9.89404 16.2639L20.1478 20.3075V33.0713L9.89404 29.0268V16.2639Z" fill="white"/>
</svg>
