<svg viewBox="0 0 76 76" fill="none" xmlns="http://www.w3.org/2000/svg">
<circle cx="38" cy="38" r="37" stroke="black" stroke-width="2"/>
<path d="M37.9998 38C43.2926 38 47.5832 33.7094 47.5832 28.4167C47.5832 23.1239 43.2926 18.8333 37.9998 18.8333C32.7071 18.8333 28.4165 23.1239 28.4165 28.4167C28.4165 33.7094 32.7071 38 37.9998 38Z" stroke="black" stroke-width="2"/>
<path d="M47.5832 41.8333H48.2573C51.157 41.8333 53.6031 43.9926 53.9628 46.8701L54.7113 52.8578C54.9972 55.1457 53.2132 57.1667 50.9075 57.1667H25.0922C22.7865 57.1667 21.0025 55.1457 21.2885 52.8578L22.0369 46.8701C22.3966 43.9926 24.8427 41.8333 27.7425 41.8333H28.4165" stroke="black" stroke-width="2" stroke-linecap="round" stroke-linejoin="round"/>
</svg>
