<svg width="48" height="48" viewBox="0 0 48 48" fill="none" xmlns="http://www.w3.org/2000/svg">
<g clip-path="url(#clip0_5_73)">
<path d="M7.85165 11.8881C11.3705 6.86688 17.1983 3.75246 23.4333 3.75246C33.908 3.75246 42.43 12.2743 42.43 22.7492H46.1824C46.1824 10.2052 35.9772 0 23.4333 0C19.0506 0 14.795 1.24945 11.1263 3.61337C8.80177 5.1111 6.78507 7.0086 5.156 9.20517L0.260292 4.33297V18.5129H14.5084L7.85165 11.8881Z" fill="#31A2C6"/>
<path d="M47.7397 29.4871H33.4916L40.1483 36.1121C36.6295 41.1331 30.8017 44.2477 24.5667 44.2477C14.0919 44.2477 5.57003 35.7258 5.57003 25.2509H1.81757C1.81757 37.7949 12.0228 48.0001 24.5667 48.0001C28.9494 48.0001 33.2052 46.7507 36.8737 44.3868C39.1982 42.8889 41.2149 40.9914 42.844 38.7948L47.7396 43.667V29.4871H47.7397Z" fill="#31A2C6"/>
</g>
<defs>
<clipPath id="clip0_5_73">
<rect width="48" height="48" fill="white"/>
</clipPath>
</defs>
</svg>
