<svg width="27" height="27" viewBox="0 0 27 27" fill="none" xmlns="http://www.w3.org/2000/svg">
<path d="M26.6597 25.0665L18.913 17.3143C20.4402 15.4827 21.3587 13.1421 21.3587 10.5857C21.3587 4.75356 16.5724 0.0114746 10.6849 0.0114746C4.79742 0.0114746 0 4.75909 0 10.5912C0 16.4234 4.78635 21.1655 10.6738 21.1655C13.1749 21.1655 15.4768 20.3078 17.3028 18.8747L25.0772 26.649C25.5309 27.1028 26.206 27.1028 26.6597 26.649C27.1134 26.1953 27.1134 25.5202 26.6597 25.0665ZM2.26868 10.5912C2.26868 6.00963 6.04242 2.28568 10.6738 2.28568C15.3053 2.28568 19.079 6.00963 19.079 10.5912C19.079 15.1729 15.3053 18.8968 10.6738 18.8968C6.04242 18.8968 2.26868 15.1673 2.26868 10.5912Z"/>
</svg>
