<svg width="16" height="16" viewBox="0 0 16 16" fill="none" xmlns="http://www.w3.org/2000/svg">
<path d="M1.29303 1.29299C1.48056 1.10552 1.73487 1.0002 2.00003 1.0002C2.26519 1.0002 2.5195 1.10552 2.70703 1.29299L8.00003 6.58599L13.293 1.29299C13.3853 1.19748 13.4956 1.1213 13.6176 1.06889C13.7396 1.01648 13.8709 0.988893 14.0036 0.987739C14.1364 0.986585 14.2681 1.01189 14.391 1.06217C14.5139 1.11245 14.6255 1.1867 14.7194 1.28059C14.8133 1.37449 14.8876 1.48614 14.9379 1.60904C14.9881 1.73193 15.0134 1.86361 15.0123 1.99639C15.0111 2.12917 14.9835 2.26039 14.9311 2.38239C14.8787 2.5044 14.8025 2.61474 14.707 2.70699L9.41403 7.99999L14.707 13.293C14.8892 13.4816 14.99 13.7342 14.9877 13.9964C14.9854 14.2586 14.8803 14.5094 14.6948 14.6948C14.5094 14.8802 14.2586 14.9854 13.9964 14.9877C13.7342 14.9899 13.4816 14.8891 13.293 14.707L8.00003 9.41399L2.70703 14.707C2.51843 14.8891 2.26583 14.9899 2.00363 14.9877C1.74143 14.9854 1.49062 14.8802 1.30521 14.6948C1.1198 14.5094 1.01464 14.2586 1.01236 13.9964C1.01008 13.7342 1.11087 13.4816 1.29303 13.293L6.58603 7.99999L1.29303 2.70699C1.10556 2.51946 1.00024 2.26515 1.00024 1.99999C1.00024 1.73483 1.10556 1.48052 1.29303 1.29299Z"/>
</svg>
